# xmcd
#
# Track frame offsets: 
#        150
#        12006
#        23114
#        33121
#        43985
#        54827
#        64524
#        72637
#        83431
#        93138
#        105372
#        115208
#        125215
#        139652
#        148866
#        159809
#        168472
#        178837
#        189542
#        200723
#        212512
#        223562
#        236970
#        249435
#
# Disc length: 3451 seconds
#
# Revision: 0
# Processed by: cddbd v1.5.2PL0 Copyright (c) Steve Scherf et al.
# Submitted via: ExactAudioCopyFreeDBPlugin 1.0
#
DISCID=4f0d7918
DTITLE=Don Helms - Don Helms Plays Hank Williams and Other Favourites
DYEAR=1900
DGENRE=Instrumental Country
TTITLE0=Your Cheatin' Heart
TTITLE1=Mansion On The Hill
TTITLE2=Wedding Bells
TTITLE3=You Win Again
TTITLE4=Half As Much
TTITLE5=Take These Chains From My Heart
TTITLE6=Jambalaya (On The Bayou)
TTITLE7=I'm So Lonesome I Could Cry
TTITLE8=There'll Be No Teardrops Tonight
TTITLE9=Cold Cold Heart
TTITLE10=Kaw-Liga
TTITLE11=Hey Good Lookin'
TTITLE12=I Can't Help It
TTITLE13=I Walk The Line
TTITLE14=The Window Up Above
TTITLE15=I'm Walking The Floor Over You
TTITLE16=Gone
TTITLE17=Bouquet Of Roses
TTITLE18=Fireball Mail
TTITLE19=Four Walls
TTITLE20=Fraulein
TTITLE21=I Can't Stop Lovin' You
TTITLE22=Send Me The Pillow You Dream On
TTITLE23=The Wild Side Of Life
EXTD=
EXTT0=
EXTT1=
EXTT2=
EXTT3=
EXTT4=
EXTT5=
EXTT6=
EXTT7=
EXTT8=
EXTT9=
EXTT10=
EXTT11=
EXTT12=
EXTT13=
EXTT14=
EXTT15=
EXTT16=
EXTT17=
EXTT18=
EXTT19=
EXTT20=
EXTT21=
EXTT22=
EXTT23=
PLAYORDER=
